<?xml version="1.0" encoding="UTF-8" standalone="no"?>
<svg
   xmlns:dc="http://purl.org/dc/elements/1.1/"
   xmlns:cc="http://creativecommons.org/ns#"
   xmlns:rdf="http://www.w3.org/1999/02/22-rdf-syntax-ns#"
   xmlns:svg="http://www.w3.org/2000/svg"
   xmlns="http://www.w3.org/2000/svg"
   xmlns:sodipodi="http://sodipodi.sourceforge.net/DTD/sodipodi-0.dtd"
   xmlns:inkscape="http://www.inkscape.org/namespaces/inkscape"
   viewBox="-215.15 -0.8 430.3 36.1"
   id="svg2"
   version="1.1"
   inkscape:version="0.47 r22583"
   width="100%"
   height="100%"
   sodipodi:docname="companion.svg">
  <metadata
     id="metadata14">
    <rdf:RDF>
      <cc:Work
         rdf:about="">
        <dc:format>image/svg+xml</dc:format>
        <dc:type
           rdf:resource="http://purl.org/dc/dcmitype/StillImage" />
      </cc:Work>
    </rdf:RDF>
  </metadata>
  <defs
     id="defs12">
    <inkscape:perspective
       sodipodi:type="inkscape:persp3d"
       inkscape:vp_x="0 : 18.05 : 1"
       inkscape:vp_y="0 : 1000 : 0"
       inkscape:vp_z="430.3 : 18.05 : 1"
       inkscape:persp3d-origin="215.15 : 12.033333 : 1"
       id="perspective16" />
  </defs>
  <sodipodi:namedview
     pagecolor="#ffffff"
     bordercolor="#666666"
     borderopacity="1"
     objecttolerance="10"
     gridtolerance="10"
     guidetolerance="10"
     inkscape:pageopacity="0"
     inkscape:pageshadow="2"
     inkscape:window-width="648"
     inkscape:window-height="483"
     id="namedview10"
     showgrid="false"
     inkscape:zoom="1.2549384"
     inkscape:cx="215.15"
     inkscape:cy="18.05"
     inkscape:window-x="0"
     inkscape:window-y="0"
     inkscape:window-maximized="0"
     inkscape:current-layer="g6" />
  <desc
     id="desc4">Created by Action Script Viewer - http://www.buraks.com/asv</desc>
  <g
     id="g6">
    <path
       fill="none"
       stroke="#000000"
       stroke-width="0.01"
       stroke-opacity="1"
       d="M163.5,-0.55 L163.7,0.05 L162.7,2.55 Q161.5,5.3,160.3,6.65 L160,6.6 L159.25,5.75 Q161.1,3.6,161.95,1.2 L159.7,2.95  L158.4,2.25 Q161.35,-0.35,162.85,-0.75 L163.5,-0.55 M207.5,20.75 L207.4,21.95 L206.7,23 Q202.15,25.95,195.8,25.2  Q190.4,24.55,185.05,21.55 L185.5,19.6 Q190.45,23.05,196.1,23.75 Q201.75,24.45,205.65,22 L205.65,21.95  Q206.2,21.5,206.1,20.75 Q206.05,20.25,205.65,19.95 Q205.2,19.6,204.6,19.7 Q203.8,20,204.05,20.35  Q204.3,20.7,205.4,20.75 L204.75,21.95 L203.25,21.45 Q202.35,20.55,202.85,19.5 Q203.35,18.6,204.3,18.4  Q205.5,18.05,206.45,18.85 Q207.35,19.55,207.5,20.75 M208.15,20.7 L211.45,20.7 Q212.85,20.35,214.25,21.6  Q215.7,22.9,214.8,24.45 Q214.65,23.5,213.75,22.65 Q212,21.05,208.25,21.9 L208.15,20.7 M186.3,12.4  Q187.25,12.45,187.45,12.75 Q187.7,13.2,187,14.9 L186.2,16.15 L184.45,18.1 L184.3,17.95 L183.15,17.6 L181.15,17.2  Q178,16.9,175.1,18.05 L171.3,20.2 L170.05,20.95 L168.05,21 L164.55,21.2 Q162.3,21.65,160.5,23.15  Q160.25,23.4,160.45,23.55 Q160.5,23.75,160.8,23.75 L164.4,23.45 Q160.8,24.75,158,27.35 Q157,28.45,157.35,25.9  Q157.65,24.8,161.3,20.95 Q163.5,18.65,164.15,15.25 Q164.55,13.15,164.35,11 L165.85,10.8 L166.25,10.35 L166.35,10.1  L166.35,10 Q166.05,7.9,162.7,5.3 L163.2,4.55 Q163.85,4.9,166.45,5.85 Q168.85,6.7,170.05,7.45 Q171.7,8.5,173.1,10.35  Q174.35,11.95,174.8,12.1 L179.9,11.55 Q184.35,11.1,185.4,12.4 L186.3,12.4 M182.3,15.4 Q182.35,16,182.85,16.4  Q183.3,16.8,183.95,16.7 Q184.65,16.65,185.15,16.05 Q185.6,15.45,185.5,14.7 Q185.45,13.85,184.7,13.2  Q183.8,12.5,182.75,12.6 Q180.85,12.8,175.2,16.35 Q169.7,19.8,168.75,19.8 Q167.75,19.75,166.9,19.2  Q166.05,18.6,165.7,17.7 Q165.3,16.8,165.5,15.8 Q165.7,14.8,166.4,14.15 Q167.05,13.5,168.1,13.5 Q169.1,13.5,169.8,14.15  Q170.5,14.75,170.35,15.8 Q170.2,16.8,169.35,17.15 Q168.45,17.5,167.85,16.85 Q167.55,16.55,167.55,16.15  Q167.5,15.7,167.75,15.4 L167.15,14.9 Q166.75,15.45,166.75,16.15 Q166.8,16.9,167.3,17.35 L168.4,17.95 L169.65,17.8  Q170.55,17.4,170.9,16.45 Q171.25,15.55,170.9,14.65 Q171.9,14.7,174.45,13.6 L175,14.2 L175.25,13.85 L174.45,13.05  Q174.15,12.95,172.55,13.7 Q173.05,12.7,172.6,12 Q172.1,11.1,170.75,10.95 L167.6,10.95 L167.8,11.4 L169.05,12.95  Q167.25,12.45,165.95,13.65 Q165.1,14.45,164.85,15.7 Q164.65,16.9,165.15,17.95 Q165.6,19,166.6,19.65  Q167.6,20.25,168.75,20.3 Q169.7,20.35,173,18.5 L176.25,16.55 Q181.3,13.2,183.1,13.05 Q183.85,13.05,184.35,13.5  Q184.95,13.95,185.05,14.75 Q185.1,15.35,184.8,15.8 Q184.5,16.3,183.9,16.35 L183.1,16.1 Q182.8,15.8,182.85,15.3  Q182.9,14.6,183.55,14.65 Q184.15,14.7,184.15,14.95 L184.45,14.95 L184.1,14.25 L183.35,14.05 Q182.85,14.1,182.55,14.5  Q182.2,14.9,182.3,15.4 M184.15,18.55 Q184.15,20.15,183.5,20.95 L183.15,21.85 Q182.65,22.75,181.7,22.7 L176.35,22.3  L170.3,22.45 Q167.8,23.2,165,25.7 L162.45,29.5 Q158.95,33.4,154.1,34.15 L155.1,31.45 Q156.1,28.3,155.8,26  Q157.75,23.3,157.75,20.8 Q159.3,20,160.7,18.15 Q163.55,14.55,162.95,9.6 L164.5,9.7 L163.35,8.05 L161.3,6.15  L162.35,4.15 L162.6,4.25 L162,5.2 Q161.8,5.45,162.1,5.65 L163.75,7.1 Q165.5,8.8,165.7,10 L165.5,10.25 L164.05,10.3  L163.75,10.35 L163.65,10.65 L163.65,14.1 Q163.2,18.05,160.85,20.5 Q157,24.55,156.7,25.8 L156.2,29.35  Q156.1,29.6,156.4,29.7 L156.5,29.7 L156.8,29.6 Q157.55,28.55,159.1,27.25 Q162.1,24.75,165.8,23.7 L166,23.4  Q166.1,23.15,165.8,23.05 L165,22.85 L163,22.75 L162.8,22.6 L163,22.35 Q164.7,21.65,168.05,21.65 L170.2,21.6 L171.7,20.7  L172.05,20.5 L177.7,21.05 L181.75,21.15 Q182.1,21.2,182.15,20.6 Q182.2,19,181.25,17.9 L184.1,18.55 L184.15,18.55  M170.5,12.5 Q170.7,11.85,171.3,12.05 Q171.9,12.25,171.7,12.85 Q171.5,13.5,170.9,13.3 Q170.3,13.15,170.5,12.5 M158.1,4.6  Q157.4,5.3,157.1,7.35 L155.75,7.2 Q156.2,4.85,157,4.05 L158.1,4.6 M159.2,4.75 L157.4,4.1 Q155.15,3.4,152.75,3.2  Q145.05,2.5,138.4,6.65 Q132.25,10.5,123.35,17.15 L123.4,17.2 L123.35,17.3 L124.95,18.65 Q124.75,19.7,124,19.95  L120.6,17.3 Q130.2,9.4,137.6,5.35 Q144.95,1.35,152.95,1.9 L157.8,2.7 L159.8,3.35 L159.2,4.75 M155.95,4.9 L155.35,6.3  L152.15,5.9 Q147.85,6.05,142.35,8.6 Q138.8,10.25,134.55,14.05 Q132.4,15.9,130.95,17.5 L129.85,16.5 L133.65,12.8  Q138,8.95,141.75,7.25 Q147.65,4.5,152.3,4.4 L155.95,4.9 M155.7,9.15 L157.8,7.4 L158.65,8.45 L153.9,12.45 L152.95,11.45  L155.7,9.15 M157.7,6.75 L158.5,5.65 L159.7,6.8 Q160.95,8.1,161.4,9.4 L161.35,10 L160.8,10.3 L157.85,9.8 L158.8,8.7  L159.65,8.85 L158.35,7.35 L157.7,6.75 M148,10.6 Q146.55,10.75,142.95,12.5 Q139,14.5,136.6,16.55  Q140.5,16.65,145.05,15.2 L145.75,15 Q150.2,13.65,151.1,12.95 L151.2,12.95 L152.1,14.05 L152,14.2  Q150.55,15.2,146.2,16.4 L145.55,16.65 Q140.95,18.05,136.8,18.05 L134.75,17.9 Q134.35,17.85,134.2,17.4  Q134.05,16.95,134.35,16.65 Q136.5,14.15,141.4,11.6 Q145.85,9.3,147.8,9.15 Q149.5,8.8,151.3,10.2 L154.3,13.35  L154.45,13.55 Q154.75,13.9,154.55,14.35 Q157.3,12.35,161.2,12.15 Q161.7,12.15,161.85,12.6 L161.65,14.65  Q160.75,17.2,157.1,20 L156.95,18.8 Q158.75,17.1,159.75,15.6 L160.6,13.55 Q157.25,13.75,154.95,15.65  Q153.75,16.55,153.25,17.55 L152.1,16.8 Q152.7,15.8,154,14.75 Q153.55,14.85,153.3,14.5 L153.15,14.3 L150.65,11.6  Q149.2,10.35,148,10.6 M150.55,15.6 L152.35,17.4 Q153.8,18.6,154.7,18.95 L154.65,20.35 Q150.3,17.85,149.4,16.3  L150.55,15.6 M143.7,22.6 Q144.1,24.45,145.85,25.4 Q148.15,26.65,152.2,25 L152.8,26.4 Q150.15,27.45,148.15,27.45  Q146.45,27.45,145.15,26.75 Q143.35,25.75,142.5,23.7 L135.95,26.1 L134.25,24.35 L135.3,23.3 L136.35,24.35 L143.55,21.75  L143.7,22.6 M149.15,22.7 L148.1,25.55 L146.8,25.4 L147.7,22.55 Q148.9,19.6,150.6,18.5 L151.45,19.55  Q150.1,20.45,149.15,22.7 M147.75,21 L139.25,20.75 Q134.95,21.8,129.95,25.7 L126.5,21.6 L127.9,20.5 Q129.7,22,130.3,23.4  Q136.4,19.85,138.75,19.35 Q144,18.1,148.8,19.4 L147.75,21 M151.35,20.2 L152.4,21.2 Q153.5,22.5,154.05,23.95  Q155.7,28.6,152.45,34.9 L151.95,35.25 L151.8,35.25 L151.4,35.1 L149.4,32.9 Q147.45,30.35,147,27.85 L148.3,27.85  Q148.75,30.9,151.6,33.45 Q154.1,28.3,152.8,24.5 Q152.35,23.25,151.4,22.2 L150.55,21.35 L151.35,20.2 M155.9,15.65  L156.55,19.1 Q156.8,22.85,154.95,25.25 L154.5,23.65 Q155.55,21.95,155.2,19.05 L154.65,16.5 L155.9,15.65 M124.6,13.4  L124.05,13.85 L121.35,11.65 L119.1,11.65 L119.1,23 L121.35,23 L127.4,18.05 Q127.9,19,128.65,19.3 L121.95,24.65  L117.4,24.65 L117.4,9.95 L121.95,9.95 L125.2,12.55 L124.6,13.4 M127.4,15 L132.35,20.05 L132.65,20.4 L131.4,21.4  L126.05,16 L127.4,15 M155.4,33.1 Q160.05,31.7,163.8,26.05 Q157.6,28.55,155.4,33.1 M-163.5,-0.5 L-163.7,0.1 L-162.7,2.6  Q-161.5,5.35,-160.3,6.7 L-160,6.65 L-159.25,5.8 Q-161.1,3.65,-161.95,1.25 L-159.7,3 L-158.4,2.3  Q-161.35,-0.3,-162.85,-0.7 L-163.5,-0.5 M-119.1,23.05 L-121.35,23.05 L-127.4,18.1 Q-127.9,19.05,-128.65,19.35  L-121.95,24.7 L-117.4,24.7 L-117.4,10 L-121.95,10 L-125.2,12.6 L-124.6,13.45 L-124.05,13.9 L-121.35,11.7 L-119.1,11.7  L-119.1,23.05 M-132.65,20.45 L-131.4,21.45 L-126.05,16.05 L-127.4,15.05 L-132.35,20.1 L-132.65,20.45 M-134.75,17.95  Q-134.35,17.9,-134.2,17.45 Q-134.05,17,-134.35,16.7 Q-136.5,14.2,-141.4,11.65 Q-145.85,9.35,-147.8,9.2  Q-149.5,8.85,-151.25,10.2 L-151.3,10.25 L-154.3,13.4 L-154.45,13.6 Q-154.75,13.95,-154.55,14.4 Q-157.3,12.4,-161.2,12.2  Q-161.7,12.2,-161.85,12.65 L-161.65,14.7 Q-160.75,17.25,-157.1,20.05 L-156.95,18.85 Q-158.75,17.15,-159.75,15.65  L-160.6,13.6 Q-157.25,13.8,-154.95,15.7 Q-153.75,16.6,-153.25,17.6 L-152.1,16.85 Q-152.7,15.85,-154,14.8  Q-153.55,14.9,-153.3,14.55 L-153.15,14.35 L-151.25,12.25 L-150.65,11.65 Q-149.2,10.4,-148,10.65  Q-146.55,10.8,-142.95,12.55 Q-139,14.55,-136.6,16.6 Q-140.5,16.7,-145.05,15.25 L-145.75,15.05 Q-150.2,13.7,-151.1,13  L-151.2,13 L-151.25,13.05 L-152.1,14.1 L-152,14.25 L-151.25,14.7 Q-149.6,15.5,-146.2,16.45 L-145.55,16.7  Q-140.95,18.1,-136.8,18.1 L-134.75,17.95 M-135.3,23.35 L-136.35,24.4 L-143.55,21.8 L-143.7,22.65  Q-144.1,24.5,-145.85,25.45 Q-147.85,26.55,-151.25,25.4 L-152.2,25.05 L-152.8,26.45 L-151.25,27 L-148.15,27.5  Q-146.45,27.5,-145.15,26.8 Q-143.35,25.8,-142.5,23.75 L-135.95,26.15 L-134.25,24.4 L-135.3,23.35 M-123.4,17.25  L-123.35,17.35 L-124.95,18.7 Q-124.75,19.75,-124,20 L-120.6,17.35 Q-130.2,9.45,-137.6,5.4 Q-144.15,1.85,-151.25,1.9  L-152.95,1.95 L-157.8,2.75 L-159.8,3.4 L-159.2,4.8 L-157.4,4.15 Q-155.15,3.45,-152.75,3.25 L-151.25,3.15  Q-144.4,2.95,-138.4,6.7 Q-132.25,10.55,-123.35,17.2 L-123.4,17.25 M-129.85,16.55 L-133.65,12.85 Q-138,9,-141.75,7.3  Q-147,4.85,-151.25,4.5 L-152.3,4.45 L-155.95,4.95 L-155.35,6.35 L-152.15,5.95 L-151.25,6 Q-147.3,6.35,-142.35,8.65  Q-138.8,10.3,-134.55,14.1 Q-132.4,15.95,-130.95,17.55 L-129.85,16.55 M-130.3,23.45 Q-136.4,19.9,-138.75,19.4  Q-144,18.15,-148.8,19.45 L-147.75,21.05 L-139.25,20.8 Q-134.95,21.85,-129.95,25.75 L-126.5,21.65 L-127.9,20.55  Q-129.7,22.05,-130.3,23.45 M-158.1,4.65 Q-157.4,5.35,-157.1,7.4 L-155.75,7.25 Q-156.2,4.9,-157,4.1 L-158.1,4.65  M-157.7,6.8 L-158.5,5.7 L-159.7,6.85 Q-160.95,8.15,-161.4,9.45 L-161.35,10.05 L-160.8,10.35 L-157.85,9.85 L-158.8,8.75  L-159.65,8.9 L-158.35,7.4 L-157.7,6.8 M-158.65,8.5 L-153.9,12.5 L-152.95,11.5 L-155.7,9.2 L-157.8,7.45 L-158.65,8.5  M-155.9,15.7 L-156.55,19.15 Q-156.8,22.9,-154.95,25.3 L-154.5,23.7 Q-155.55,22,-155.2,19.1 L-154.65,16.55 L-155.9,15.7  M-160.45,23.6 Q-160.5,23.8,-160.8,23.8 L-164.4,23.5 Q-160.8,24.8,-158,27.4 Q-157,28.5,-157.35,25.95  Q-157.65,24.85,-161.3,21 Q-163.5,18.7,-164.15,15.3 Q-164.55,13.2,-164.35,11.05 L-165.85,10.85 L-166.25,10.4  L-166.35,10.15 L-166.35,10.05 Q-166.05,7.95,-162.7,5.35 L-163.2,4.6 Q-163.85,4.95,-166.45,5.9 Q-168.85,6.75,-170.05,7.5  Q-171.7,8.55,-173.1,10.4 Q-174.35,12,-174.8,12.15 L-179.9,11.6 Q-184.35,11.15,-185.4,12.45 L-186.3,12.45  Q-187.25,12.5,-187.45,12.8 Q-187.7,13.25,-187,14.95 L-186.2,16.2 L-184.45,18.15 L-184.3,18 L-183.15,17.65  L-181.15,17.25 Q-178,16.95,-175.1,18.1 L-171.3,20.25 L-170.05,21 L-168.05,21.05 L-164.55,21.25 Q-162.3,21.7,-160.5,23.2  Q-160.25,23.45,-160.45,23.6 M-154.05,24 Q-155.7,28.65,-152.45,34.95 L-151.95,35.3 L-151.8,35.3 L-151.4,35.15  L-151.25,35.05 L-149.4,32.95 Q-147.45,30.4,-147,27.9 L-148.3,27.9 Q-148.7,30.75,-151.25,33.2 L-151.6,33.5  Q-154.1,28.35,-152.8,24.55 Q-152.35,23.3,-151.4,22.25 L-150.55,21.4 L-151.35,20.25 L-152.4,21.25  Q-153.5,22.55,-154.05,24 M-154.65,20.4 L-151.25,18.2 Q-149.85,17.15,-149.4,16.35 L-150.55,15.65 L-151.25,16.45  L-152.35,17.45 Q-153.8,18.65,-154.7,19 L-154.65,20.4 M-160.7,18.2 Q-163.55,14.6,-162.95,9.65 L-164.5,9.75 L-163.35,8.1  L-161.3,6.2 L-162.35,4.2 L-162.6,4.3 L-162,5.25 Q-161.8,5.5,-162.1,5.7 L-163.75,7.15 Q-165.5,8.85,-165.7,10.05  L-165.5,10.3 L-164.05,10.35 L-163.75,10.4 L-163.65,10.7 L-163.65,14.15 Q-163.2,18.1,-160.85,20.55  Q-157,24.6,-156.7,25.85 L-156.2,29.4 Q-156.1,29.65,-156.4,29.75 L-156.5,29.75 L-156.8,29.65 Q-157.55,28.6,-159.1,27.3  Q-162.1,24.8,-165.8,23.75 L-166,23.45 Q-166.1,23.2,-165.8,23.1 L-165,22.9 L-163,22.8 L-162.8,22.65 L-163,22.4  Q-164.7,21.7,-168.05,21.7 L-170.2,21.65 L-171.7,20.75 L-172.05,20.55 L-177.7,21.1 L-181.75,21.2  Q-182.1,21.25,-182.15,20.65 Q-182.2,19.05,-181.25,17.95 L-184.1,18.6 L-184.15,18.6 Q-184.15,20.2,-183.5,21  L-183.15,21.9 Q-182.65,22.8,-181.7,22.75 L-176.35,22.35 L-170.3,22.5 Q-167.8,23.25,-165,25.75 L-162.45,29.55  Q-158.95,33.45,-154.1,34.2 L-155.1,31.5 Q-156.1,28.35,-155.8,26.05 Q-157.75,23.35,-157.75,20.85  Q-159.3,20.05,-160.7,18.2 M-151.25,19.75 Q-150.05,20.65,-149.15,22.75 L-148.1,25.6 L-146.8,25.45 L-147.7,22.6  Q-148.9,19.65,-150.6,18.55 L-151.45,19.6 L-151.25,19.75 M-167.6,11 L-167.8,11.45 L-169.05,13 Q-167.25,12.5,-165.95,13.7  Q-165.1,14.5,-164.85,15.75 Q-164.65,16.95,-165.15,18 Q-165.6,19.05,-166.6,19.7 Q-167.6,20.3,-168.75,20.35  Q-169.7,20.4,-173,18.55 L-176.25,16.6 Q-181.3,13.25,-183.1,13.1 Q-183.85,13.1,-184.35,13.55 Q-184.95,14,-185.05,14.8  Q-185.1,15.4,-184.8,15.85 Q-184.5,16.35,-183.9,16.4 L-183.1,16.15 Q-182.8,15.85,-182.85,15.35  Q-182.9,14.65,-183.55,14.7 Q-184.15,14.75,-184.15,15 L-184.45,15 L-184.1,14.3 L-183.35,14.1  Q-182.85,14.15,-182.55,14.55 Q-182.2,14.95,-182.3,15.45 Q-182.35,16.05,-182.85,16.45 Q-183.3,16.85,-183.95,16.75  Q-184.65,16.7,-185.15,16.1 Q-185.6,15.5,-185.5,14.75 Q-185.45,13.9,-184.7,13.25 Q-183.8,12.55,-182.75,12.65  Q-180.85,12.85,-175.2,16.4 Q-169.7,19.85,-168.75,19.85 Q-167.75,19.8,-166.9,19.25 Q-166.05,18.65,-165.7,17.75  Q-165.3,16.85,-165.5,15.85 Q-165.7,14.85,-166.4,14.2 Q-167.05,13.55,-168.1,13.55 Q-169.1,13.55,-169.8,14.2  Q-170.5,14.8,-170.35,15.85 Q-170.2,16.85,-169.35,17.2 Q-168.45,17.55,-167.85,16.9 Q-167.55,16.6,-167.55,16.2  Q-167.5,15.75,-167.75,15.45 L-167.15,14.95 Q-166.75,15.5,-166.75,16.2 Q-166.8,16.95,-167.3,17.4 L-168.4,18  L-169.65,17.85 Q-170.55,17.45,-170.9,16.5 Q-171.25,15.6,-170.9,14.7 Q-171.9,14.75,-174.45,13.65 L-175,14.25  L-175.25,13.9 L-174.45,13.1 Q-174.15,13,-172.55,13.75 Q-173.05,12.75,-172.6,12.05 Q-172.1,11.15,-170.75,11 L-167.6,11  M-170.5,12.55 Q-170.7,11.9,-171.3,12.1 Q-171.9,12.3,-171.7,12.9 Q-171.5,13.55,-170.9,13.35 Q-170.3,13.2,-170.5,12.55  M-185.5,19.65 Q-190.45,23.1,-196.1,23.8 Q-201.75,24.5,-205.65,22.05 L-205.65,22 Q-206.2,21.55,-206.1,20.8  Q-206.05,20.3,-205.65,20 Q-205.2,19.65,-204.6,19.75 Q-203.8,20.05,-204.05,20.4 Q-204.3,20.75,-205.4,20.8 L-204.75,22  L-203.25,21.5 Q-202.35,20.6,-202.85,19.55 Q-203.35,18.65,-204.3,18.45 Q-205.5,18.1,-206.45,18.9  Q-207.35,19.6,-207.5,20.8 L-207.4,22 L-206.7,23.05 Q-202.15,26,-195.8,25.25 Q-190.4,24.6,-185.05,21.6 L-185.5,19.65  M-214.8,24.5 Q-214.65,23.55,-213.75,22.7 Q-212,21.1,-208.25,21.95 L-208.15,20.75 L-211.45,20.75  Q-212.85,20.4,-214.25,21.65 Q-215.7,22.95,-214.8,24.5 M-163.8,26.1 Q-157.6,28.6,-155.4,33.15 Q-160.05,31.75,-163.8,26.1  "
       id="path8"
       style="stroke:none;fill:#999999;fill-opacity:1" />
  </g>
</svg>
